PathFileType	4	(X/Y/Z)	33_2_12_p0_0-414_filt_butterworth.trc
DataRate	CameraRate	NumFrames	NumMarkers	Units	OrigDataRate	OrigDataStartFrame	OrigNumFrames
60.0	60.0	7	27	m	60.0	207	414
Frame#	Time	RHip			RKnee			RAnkle			RBigToe			RSmallToe			RHeel			LHip			LKnee			LAnkle			LBigToe			LSmallToe			LHeel			Neck			Head			Nose			RShoulder			RElbow			RWrist			RThumb			RIndex			RPinky			LShoulder			LElbow			LWrist			LThumb			LIndex			LPinky			
		X1	Y1	Z1	X2	Y2	Z2	X3	Y3	Z3	X4	Y4	Z4	X5	Y5	Z5	X6	Y6	Z6	X7	Y7	Z7	X8	Y8	Z8	X9	Y9	Z9	X10	Y10	Z10	X11	Y11	Z11	X12	Y12	Z12	X13	Y13	Z13	X14	Y14	Z14	X15	Y15	Z15	X16	Y16	Z16	X17	Y17	Z17	X18	Y18	Z18	X19	Y19	Z19	X20	Y20	Z20	X21	Y21	Z21	X22	Y22	Z22	X23	Y23	Z23	X24	Y24	Z24	X25	Y25	Z25	X26	Y26	Z26	X27	Y27	Z27	
207	3.45	0.28311569793446045	0.31796477505949966	0.14556600154940877	0.2641445624221164	0.5283666165560856	0.533778557983537	0.24623643538333417	0.7846455169228299	0.9263060387898201	0.2816308835043782	0.6063484483881713	1.0022944372780334	0.33300641573200684	0.6382915411403235	0.9967993087413785	0.2142390765846452	0.8768937371520814	0.9743629743875658	0.059013367238678636	0.2975828686113366	0.14782859880826865	0.06420884014856053	0.5333169806892981	0.5336092929044722	0.06026649510166897	0.778060526995314	0.9414710427856907	0.09615687140987397	0.5779127753544313	1.002325447432188	0.038403764102010275	0.6161791203906364	1.0005100929682638	0.07620786400436891	0.8463732474429326	0.9678263970109325	0.20062906691941618	-0.010359039888334025	-0.3617373386445452	0.221375789157656	-0.17082234794512743	-0.5297074875321366	0.2452733343624527	-0.17569963877226408	-0.38747443003322785	0.3562541657397867	0.07283738756947075	-0.30037138226929055	0.3963954016885066	0.17621245388123688	-0.04829005719624259	0.4379035905304743	0.23797093260845667	0.19684794573499134	0.4402944321582331	0.29920973375308957	0.3209414588986488	0.4579446273084923	0.32795609916915136	0.31783621820919916	0.45682176059386426	0.3599127215102052	0.3144655121591004	0.04551826781102672	0.040676286048632604	-0.29658720939166444	-0.040190882847932596	0.1001339505597255	-0.0424527177837888	0.0014655411666871358	-0.06862323956060311	-0.158191911313738	0.008104894748478676	-0.1340379762179498	-0.25108075807317937	-0.008633307099955993	-0.21233855185762499	-0.23810501864228556	-0.01914863818759523	-0.19120494011732475	-0.21128385827974433
208	3.466666666666667	0.28302184622907123	0.31900970131520096	0.1453646373603324	0.26463776724925864	0.5275927171468007	0.5315937340659813	0.246346096710596	0.7841473049758461	0.9262638552490972	0.2835533416232959	0.6005042140141065	1.0010029946616148	0.33293269808934545	0.6380916597454119	0.9968021157955517	0.214252370249642	0.8768724882136961	0.9742773088969869	0.05875491582035177	0.29178945213026175	0.14722576028390133	0.06463686970847149	0.5341931306847408	0.5331373517839774	0.06029440883969032	0.7780451631809544	0.9414535392357467	0.09591043648448085	0.5779035500332815	1.0021755901706428	0.03907903780954856	0.6145368488198379	1.000193898948145	0.07626144332908862	0.8465044501139622	0.9677584550633648	0.19906606264398177	-0.018033012860227758	-0.35961558394883736	0.21891138637834476	-0.16984565809778818	-0.5274394885554956	0.24508460022585787	-0.1766439322211896	-0.3865954312551548	0.3541404549750949	0.06961184175389037	-0.29992962565406256	0.39619172087659593	0.17826003150156758	-0.05120347693003709	0.4403132393430642	0.24341182637517497	0.19496081320431147	0.43760270339783613	0.29251658323247137	0.321706438474136	0.4509744649271248	0.3217035135309354	0.3209586279990307	0.4554042925673981	0.3590358018072153	0.31383832162627356	0.046340911043716744	0.03838346792531079	-0.29680778855005285	-0.04125201970620854	0.07952360077415371	-0.04167475869308431	0.006260054427911382	-0.06598469823913385	-0.18308669709282735	0.015596220377136235	-0.12206271170999751	-0.2832301049431884	-0.006773445919626097	-0.19290274301382554	-0.2741802007270674	-0.013680284398598856	-0.16692524178959212	-0.2516125109563834
209	3.4833333333333334	0.282760553041656	0.31936961984050455	0.1447619917510498	0.2651286589738476	0.5275192822835374	0.5305835741511501	0.24622668844817858	0.784150653760161	0.9263064010118616	0.2849581786275668	0.5958979923121798	1.000125667391788	0.33290570574110523	0.638009706161413	0.9967947809910076	0.21423716307315416	0.8768581422096586	0.9743026891903659	0.058826041110243504	0.28917131143318453	0.1459663033816579	0.0649335644186635	0.5355119245115985	0.5339106830882453	0.0603208124855064	0.7780597064298406	0.9414396365771442	0.09570644997588357	0.5780226764844868	1.002177864776338	0.03915631501275031	0.6143741476151681	1.0000864178068327	0.0763146843364515	0.8466159383382221	0.9677227252189806	0.19841416758171918	-0.022716873764976282	-0.35816342643844723	0.21641657595932318	-0.16918910323713468	-0.5257953504487989	0.24463665339723015	-0.17664872281991525	-0.3860040203770404	0.3527725839914513	0.0678843653788866	-0.2997630166218289	0.3961877023535815	0.18449765758760633	-0.05422377901120467	0.4419332090968968	0.24752868691171265	0.19366349027139174	0.43437776596516586	0.28514186847868644	0.3220968568654814	0.444167035091683	0.31104209520627357	0.3243594316832947	0.4515757007455019	0.356977117044587	0.31413116087954174	0.047175033731921764	0.03757132355712587	-0.2971423077721889	-0.043306818707645946	0.06003624902737304	-0.04293528314004022	0.011406999886152496	-0.06823881874404635	-0.20429611664996833	0.027518792686642098	-0.12370584208972196	-0.3038321201079656	0.00020806383328561963	-0.1665774000393523	-0.3049626161419452	-0.0048778795422281095	-0.1433876773791513	-0.28749899522662403
210	3.5	0.2825282981025786	0.3195847786246668	0.1441088292093354	0.2654817712898091	0.5283016803269361	0.5311602868020452	0.24604836932556165	0.7845300296317372	0.9264263289328217	0.2855652139494741	0.5937757775390655	0.9998296228983711	0.3328973630368505	0.6379813083831877	0.9968212036611607	0.21420792799152477	0.8768473797612655	0.9743762279505641	0.05883575715729361	0.28849483977666907	0.14484519694745585	0.06496810353670884	0.5364294326546565	0.5351943711594581	0.0603379948719437	0.7781035675091674	0.941435607767299	0.09562200670013776	0.5781530014604771	1.0022471710651404	0.039128550773228125	0.6144872715857083	1.0000492863808372	0.07632832777322501	0.8466894161218641	0.967737301664167	0.19830971103713171	-0.023860654575029262	-0.35629165401094975	0.2142842110063496	-0.16892913619485905	-0.5241854341966622	0.24319882967941325	-0.1765585544296927	-0.38526336500399583	0.3523009239182389	0.06702082936913334	-0.3000444963141491	0.3967219746891899	0.1931387326942175	-0.057009438982298793	0.4432535653328947	0.2513859456080502	0.1932897013528824	0.43127358599658616	0.2782681094959666	0.3220737579206566	0.4392479985471124	0.2994086785322192	0.32683070437521944	0.4456195391210081	0.3525958434348844	0.31602305865841473	0.047620389269808966	0.03761069961678785	-0.2971929457192299	-0.04562824393346262	0.04249636923711131	-0.046133302979035264	0.01734832740186359	-0.07533145424983798	-0.22152420128455821	0.04467375464669377	-0.126172727301155	-0.316703709019214	0.010678524005814725	-0.1405665415313532	-0.3292684266256306	0.005099922461858758	-0.12561517596953775	-0.31459204825271514
211	3.5166666666666666	0.2827732948912426	0.32126222227645	0.143512439778604	0.26570187581358695	0.5297651102743065	0.5330159318304111	0.24603534032533705	0.7844211401536546	0.9264190200587528	0.28568885092030893	0.593252949313231	0.9998465291872437	0.3329243316940449	0.6379722357552421	0.9969014142262833	0.21417947712684263	0.876835478261925	0.9743610332302715	0.05876179288819877	0.2889129641586975	0.1446656932957503	0.06489080331282751	0.5369082046481078	0.5362234074160603	0.06034483684433555	0.7781646773521156	0.9414449077183843	0.09565110670489883	0.5782485334237256	1.0023536161666933	0.039031717550634254	0.6147692250663342	1.0000517154005395	0.07630248776252174	0.8467539551106104	0.9677864269979051	0.19835175865426258	-0.02245682822677302	-0.35338066830029	0.211742772308608	-0.16890309660552033	-0.522246845255678	0.24057474531849066	-0.17652139267449957	-0.384618707102302	0.3523207971563196	0.06650418672837272	-0.3007616358883177	0.39768807317428473	0.20054923262207286	-0.059443848699096385	0.44495724792881275	0.2557999408220495	0.19328478697715856	0.4289421490668203	0.2726299995224658	0.32205316089341784	0.4366716045162469	0.2907999567534341	0.32793792604440025	0.44009577158452523	0.3444156505712303	0.31887024511210094	0.04771173668515093	0.03785765983377658	-0.2971038990827777	-0.047316834785559155	0.026671363152459063	-0.05061629803101474	0.02328944324937904	-0.08373674546391735	-0.23425076549276858	0.06259449742267598	-0.11790447449655427	-0.32715166567223475	0.022220605666778557	-0.11999963831846108	-0.3484274628187525	0.014658093713542219	-0.1192120241673282	-0.32951272721854136
212	3.533333333333333	0.28391634631199225	0.32625930896360567	0.1424337600263918	0.26588017871103675	0.5311206855548635	0.5348500592443691	0.24656347320512334	0.7821132423037801	0.9258194864174286	0.2855107028546131	0.5935307700189506	0.9999748000569522	0.3330013462217649	0.6379874901719697	0.9969763428462718	0.2141427748600402	0.8768208354433942	0.9741036827594075	0.058885891998576696	0.29068813894440243	0.14527614388630217	0.06487510272885082	0.5371292206550745	0.536685364910013	0.060342789162098176	0.7782204245013081	0.9414624020153629	0.09578972291337284	0.5783179700158264	1.0024490921920635	0.03842453523765994	0.6162648910095829	1.0002073208498312	0.07628902866634005	0.8468308098228707	0.9678161175353405	0.19837066045987822	-0.020102467020265666	-0.35027613788011397	0.20813158145063446	-0.16899243068990233	-0.5205416811050856	0.23748110405831216	-0.17584226159099764	-0.384315240605918	0.35235733574409805	0.06631555862022374	-0.30161624981210033	0.3984485570753291	0.20637918052213022	-0.06205819836541305	0.44738371137209354	0.260729810702884	0.19287888485764518	0.42749985379191036	0.26826103313916744	0.3225312190772053	0.435814364347744	0.28519017307306255	0.32845866709306676	0.4400491454167878	0.3348118756640045	0.3203369589995855	0.047680710541417	0.03809545470377692	-0.29707232640378184	-0.04848093425944741	0.01273596011684509	-0.055604655518685084	0.028224445273859942	-0.09015008298199154	-0.24208008195795205	0.0747190922794198	-0.09881132697079034	-0.33697662713223825	0.03405759782498342	-0.1045921386253122	-0.3639146277228079	0.023835014557323297	-0.12561622601873831	-0.3338392911306211
213	3.55	0.2857953833109109	0.33434244608104735	0.1404690675456575	0.26601912488799595	0.5317250133178822	0.5357498165578951	0.24789241019613162	0.7763793052752113	0.924265538958921	0.2847769465071855	0.5952843650383842	1.0002034656240142	0.3330282700902787	0.6380059680058539	0.9968428947731747	0.21408245660707734	0.8768119374133644	0.973617330373282	0.05936861870242788	0.2945138691142866	0.1460815637339845	0.06483895736069094	0.5371590442667493	0.5367714437384602	0.06032916326914516	0.7782456425573121	0.941465854157925	0.09598565171251905	0.5783962901017845	1.002409428331665	0.03688278267961398	0.6199904537146446	1.0006445886275477	0.07634429680842346	0.8468022803058088	0.9677907289164464	0.19837280194039436	-0.018207982511698653	-0.34824888828076017	0.20412002812135516	-0.1691606408190183	-0.5198757116209655	0.2347961175998837	-0.17388616392410064	-0.38422070225600685	0.35196932230239225	0.06616926222643335	-0.3021910266345874	0.39850128850900907	0.21310098852994497	-0.06519293479810022	0.45027005298408673	0.2660451739637883	0.19187324300081943	0.426684999788179	0.26508040636209723	0.32359184480866743	0.43606785534490783	0.27992321739916826	0.3290639185105846	0.4472193056571623	0.329966768193558	0.31887768966612273	0.04768072530866693	0.03832339485985787	-0.297141993207746	-0.049715826056614384	0.0009974243262227175	-0.06075270939882946	0.03190835069349382	-0.09342702387235101	-0.24566896036233263	0.07988908185560686	-0.07951444446803449	-0.34364786049213747	0.0458347504434253	-0.0939955671350989	-0.3755984177681682	0.03343313578427461	-0.1410921265486823	-0.33204705789585215
